<?xml version="1.0" standalone="no"?>
<!DOCTYPE svg PUBLIC "-//W3C//DTD SVG 20010904//EN"
 "http://www.w3.org/TR/2001/REC-SVG-20010904/DTD/svg10.dtd">
<svg version="1.0" xmlns="http://www.w3.org/2000/svg"
 width="300.000000pt" height="282.000000pt" viewBox="0 0 300.000000 282.000000"
 preserveAspectRatio="xMidYMid meet">
<metadata>
Created by potrace 1.10, written by Peter Selinger 2001-2011
</metadata>
<g transform="translate(0.000000,282.000000) scale(0.100000,-0.100000)"
fill="#000000" stroke="none">
<path d="M2065 1993 c-52 -13 -82 -68 -64 -120 21 -66 115 -82 159 -26 37 48
16 122 -41 142 -18 6 -32 10 -33 10 -1 -1 -10 -4 -21 -6z"/>
<path d="M1340 1974 c-213 -45 -399 -222 -456 -431 -20 -76 -20 -231 1 -308
56 -210 225 -375 440 -430 76 -20 223 -20 296 -1 225 60 392 228 444 450 28
117 16 260 -29 369 l-16 37 -35 -22 c-24 -16 -33 -28 -28 -38 3 -8 14 -44 24
-80 89 -323 -166 -650 -506 -650 -145 0 -265 50 -371 155 -106 105 -154 219
-154 365 1 93 13 148 51 226 102 207 345 327 567 280 58 -12 139 -43 192 -73
3 -1 15 13 27 32 l23 35 -61 31 c-128 64 -272 83 -409 53z"/>
<path d="M1842 1850 c-62 -38 -70 -114 -18 -166 74 -74 186 -26 186 79 0 39
-21 72 -60 92 -39 20 -69 19 -108 -5z"/>
<path d="M1138 1497 c-115 -158 -118 -163 -118 -214 l0 -53 125 0 125 0 0 -50
0 -50 60 0 60 0 0 50 c0 47 2 50 25 50 23 0 25 -3 25 -50 l0 -50 123 0 c140 0
177 8 244 53 139 94 143 324 6 421 -68 48 -97 54 -240 55 l-133 1 0 -165 0
-165 -25 0 -25 0 0 165 0 165 -67 0 -68 0 -117 -163z m573 36 c49 -28 72 -66
77 -126 9 -106 -44 -163 -162 -174 l-66 -6 0 168 0 168 60 -6 c33 -3 74 -13
91 -24z m-445 -190 c-7 -16 -106 -19 -106 -2 0 6 24 44 53 84 l52 73 3 -70 c2
-39 1 -77 -2 -85z"/>
</g>
</svg>
