<?xml version="1.0" standalone="no"?>
<!DOCTYPE svg PUBLIC "-//W3C//DTD SVG 20010904//EN"
 "http://www.w3.org/TR/2001/REC-SVG-20010904/DTD/svg10.dtd">
<svg version="1.0" xmlns="http://www.w3.org/2000/svg"
 width="300.000000pt" height="282.000000pt" viewBox="0 0 300.000000 282.000000"
 preserveAspectRatio="xMidYMid meet">
<metadata>
Created by potrace 1.10, written by Peter Selinger 2001-2011
</metadata>
<g transform="translate(0.000000,282.000000) scale(0.100000,-0.100000)"
fill="currentColor" stroke="none">
<path d="M2636 2756 c-80 -30 -127 -98 -127 -183 0 -73 37 -137 101 -171 37
-19 56 -23 105 -20 68 4 107 26 153 85 24 32 27 45 27 109 0 66 -3 76 -31 111
-17 21 -45 46 -62 56 -42 24 -118 31 -166 13z"/>
<path d="M1240 2683 c-471 -72 -879 -421 -1015 -868 -76 -251 -74 -543 6 -789
133 -406 475 -727 894 -838 116 -30 127 -32 320 -32 192 0 205 2 317 31 224
60 417 172 583 338 261 260 385 577 372 950 -6 151 -19 235 -58 355 -27 83
-89 220 -100 220 -5 0 -27 -13 -49 -29 -21 -15 -52 -34 -69 -40 l-29 -13 34
-72 c150 -327 133 -706 -47 -1021 -47 -82 -147 -210 -164 -208 -5 1 -39 77
-75 170 l-66 168 -44 0 -45 0 -77 -200 c-43 -110 -78 -206 -78 -212 0 -9 16
-13 49 -13 l48 0 13 45 13 45 74 0 74 0 15 -35 c7 -19 14 -40 14 -47 0 -20
-124 -104 -225 -154 -411 -201 -900 -125 -1235 193 -243 231 -361 521 -347
853 23 514 386 929 896 1026 107 21 309 21 412 0 103 -20 221 -60 296 -101
l63 -35 15 25 c25 42 43 69 65 97 l21 27 -81 41 c-240 121 -521 165 -790 123z
m833 -1870 c9 -27 17 -51 17 -55 0 -5 -18 -8 -40 -8 -22 0 -40 4 -40 8 0 18
32 102 39 102 4 0 15 -21 24 -47z"/>
<path d="M2251 2491 c-138 -35 -210 -199 -145 -330 87 -174 327 -169 420 9 24
46 24 142 0 190 -53 103 -168 158 -275 131z"/>
<path d="M925 1997 c-44 -61 -146 -203 -227 -315 l-148 -203 0 -94 0 -95 238
-2 237 -3 3 -97 3 -98 109 0 110 0 0 100 0 100 50 0 50 0 0 -100 0 -100 233 0
c176 0 247 4 292 15 242 62 385 244 385 490 0 239 -153 436 -386 495 -66 17
-110 20 -301 20 l-223 0 0 -315 0 -315 -50 0 -50 0 0 315 0 315 -122 0 -123
-1 -80 -112z m891 -112 c80 -25 137 -74 176 -152 29 -60 33 -77 33 -148 0 -93
-24 -153 -83 -212 -59 -60 -111 -77 -244 -81 l-118 -4 0 306 0 306 93 0 c55 0
114 -6 143 -15z m-789 -402 c-3 -2 -54 -2 -115 -1 l-112 3 113 159 112 158 3
-157 c1 -87 1 -160 -1 -162z"/>
<path d="M1368 1010 c-78 -14 -125 -76 -112 -146 8 -43 46 -76 121 -104 53
-19 83 -42 83 -61 0 -4 -7 -15 -16 -23 -21 -22 -70 -20 -123 4 -24 11 -45 19
-46 18 0 -2 -9 -15 -18 -30 -24 -39 -22 -45 26 -70 58 -30 165 -31 204 -2 45
34 66 69 66 113 0 56 -25 89 -91 117 -32 14 -68 30 -82 37 -61 31 -13 81 58
60 20 -6 44 -13 52 -17 10 -4 21 4 33 25 23 41 22 44 -20 62 -49 20 -89 25
-135 17z"/>
<path d="M647 1003 c-3 -5 30 -100 73 -213 l77 -205 48 0 47 0 78 205 c43 113
74 209 70 213 -4 5 -27 7 -51 5 l-44 -3 -50 -139 c-27 -76 -51 -135 -53 -130
-1 5 -24 68 -50 139 l-47 130 -47 3 c-25 2 -48 -1 -51 -5z"/>
<path d="M1097 1003 c-4 -3 -7 -100 -7 -215 l0 -208 50 0 50 0 0 215 0 215
-43 0 c-24 0 -47 -3 -50 -7z"/>
<path d="M1577 1003 c-4 -3 -7 -24 -7 -45 l0 -38 60 0 60 0 0 -170 0 -170 50
0 50 0 0 170 0 170 55 0 55 0 0 45 0 45 -158 0 c-87 0 -162 -3 -165 -7z"/>
</g>
</svg>
